<svg xmlns="http://www.w3.org/2000/svg" viewBox="0 0 1000 400" width="1000" height="400">
<defs>
<style>@import url('https://fonts.googleapis.com/css2?family=Caveat:wght@500;700&amp;display=swap'); text { font-family: 'Caveat', 'Comic Sans MS', cursive; fill: #2d2d2d; }</style>
<filter id="wobble"><feTurbulence type="fractalNoise" baseFrequency="0.02" numOctaves="3" result="n"/><feDisplacementMap in="SourceGraphic" in2="n" scale="3"/></filter>
<marker id="arrow" viewBox="0 0 10 10" refX="9" refY="5" markerWidth="8" markerHeight="8" orient="auto"><path d="M0,0 L10,5 L0,10 z" fill="#2d2d2d"/></marker>
</defs>
<rect width="1000" height="400" fill="#ffffff"/>
<g filter="url(#wobble)" stroke="#2d2d2d" stroke-width="2">
<rect x="20" y="85" width="130" height="80" rx="10" fill="#fff4c2"/>
<rect x="180" y="30" width="500" height="240" rx="14" fill="#f3f0ff" stroke-dasharray="8 6"/>
<rect x="200" y="85" width="140" height="80" rx="10" fill="#d8f3dc"/>
<rect x="365" y="85" width="140" height="80" rx="10" fill="#d8f3dc"/>
<rect x="530" y="85" width="135" height="80" rx="10" fill="#d8f3dc"/>
<rect x="365" y="195" width="140" height="55" rx="10" fill="#ffe8cc"/>
<rect x="530" y="195" width="135" height="55" rx="10" fill="#ffe8cc"/>
<rect x="720" y="70" width="260" height="110" rx="10" fill="#cfe8ff"/>
<rect x="760" y="290" width="200" height="80" rx="10" fill="#ffd6e0"/>
<rect x="520" y="300" width="160" height="65" rx="10" fill="#e9ecef"/>
<rect x="200" y="300" width="270" height="65" rx="10" fill="#e9ecef"/>
<path d="M150,125 L198,125" fill="none" marker-end="url(#arrow)"/>
<path d="M340,125 L363,125" fill="none" marker-end="url(#arrow)"/>
<path d="M505,125 L528,125" fill="none" marker-end="url(#arrow)"/>
<path d="M435,167 L435,193" fill="none" marker-end="url(#arrow)"/>
<path d="M597,167 L597,193" fill="none" marker-end="url(#arrow)"/>
<path d="M682,125 L718,125" fill="none" marker-end="url(#arrow)"/>
<path d="M860,182 L860,288" fill="none" marker-end="url(#arrow)"/>
<path d="M758,332 L682,332" fill="none" marker-end="url(#arrow)"/>
<path d="M335,298 L335,272" fill="none" marker-end="url(#arrow)"/>
</g>
<text x="85" y="120" text-anchor="middle" font-size="24" font-weight="700">orders.csv</text>
<text x="85" y="145" text-anchor="middle" font-size="18">200 rows</text>
<text x="430" y="58" text-anchor="middle" font-size="24" font-weight="700">Dagster 1.13 (i36-dagster, :23600)</text>
<text x="270" y="120" text-anchor="middle" font-size="22" font-weight="700">raw_orders</text>
<text x="270" y="145" text-anchor="middle" font-size="17">load csv</text>
<text x="435" y="120" text-anchor="middle" font-size="22" font-weight="700">clean_orders</text>
<text x="435" y="145" text-anchor="middle" font-size="17">filter, dedupe, revenue</text>
<text x="597" y="115" text-anchor="middle" font-size="20" font-weight="700">revenue_by</text>
<text x="597" y="137" text-anchor="middle" font-size="20" font-weight="700">_category</text>
<text x="597" y="157" text-anchor="middle" font-size="16">group + sum</text>
<text x="435" y="228" text-anchor="middle" font-size="18">check: ids unique</text>
<text x="597" y="228" text-anchor="middle" font-size="18">check: totals match</text>
<text x="850" y="102" text-anchor="middle" font-size="24" font-weight="700">Apache Iceberg (PyIceberg)</text>
<text x="850" y="130" text-anchor="middle" font-size="18">SQL catalog on sqlite</text>
<text x="850" y="155" text-anchor="middle" font-size="18">file warehouse: shop.* tables</text>
<text x="860" y="325" text-anchor="middle" font-size="22" font-weight="700">results ui (:23680)</text>
<text x="860" y="350" text-anchor="middle" font-size="17">/api/revenue, /api/tables</text>
<text x="600" y="330" text-anchor="middle" font-size="22" font-weight="700">browser</text>
<text x="600" y="352" text-anchor="middle" font-size="16">chart + tables</text>
<text x="335" y="328" text-anchor="middle" font-size="20" font-weight="700">scripts/test-all.sh</text>
<text x="335" y="352" text-anchor="middle" font-size="16">dagster asset materialize --select '*'</text>
</svg>
