<svg xmlns="http://www.w3.org/2000/svg" width="1040" height="330" viewBox="0 0 1040 330">
  <defs>
    <style>@import url('https://fonts.googleapis.com/css2?family=Caveat:wght@500;700&amp;display=swap'); text { font-family: 'Caveat', 'Comic Sans MS', cursive; fill: #2b2b2b; }</style>
    <filter id="wobble"><feTurbulence type="fractalNoise" baseFrequency="0.02" numOctaves="3" seed="6" result="n"/><feDisplacementMap in="SourceGraphic" in2="n" scale="3"/></filter>
    <marker id="arrow" markerWidth="12" markerHeight="12" refX="10" refY="6" orient="auto"><path d="M1,1 L10,6 L1,11" fill="none" stroke="#2b2b2b" stroke-width="2"/></marker>
  </defs>
  <rect width="1040" height="330" fill="#fffdf7"/>
  <g filter="url(#wobble)" stroke="#2b2b2b" stroke-width="2.2">
    <rect x="20" y="60" width="150" height="90" rx="10" fill="#fde2e4"/>
    <rect x="230" y="60" width="170" height="90" rx="10" fill="#fff1c1"/>
    <rect x="460" y="60" width="170" height="90" rx="10" fill="#d7f0dd"/>
    <rect x="680" y="60" width="190" height="90" rx="10" fill="#dbe7ff"/>
    <rect x="700" y="215" width="150" height="90" rx="10" fill="#eadcf8"/>
    <rect x="890" y="215" width="130" height="90" rx="10" fill="#e3f4f4"/>
    <path d="M170,105 L228,105" fill="none" marker-end="url(#arrow)"/>
    <path d="M400,105 L458,105" fill="none" marker-end="url(#arrow)"/>
    <path d="M630,105 L678,105" fill="none" marker-end="url(#arrow)"/>
    <path d="M775,150 L775,213" fill="none" marker-end="url(#arrow)"/>
    <path d="M850,260 L888,260" fill="none" marker-end="url(#arrow)"/>
  </g>
  <text x="95" y="100" font-size="26" text-anchor="middle" font-weight="700">orders.csv</text>
  <text x="95" y="128" font-size="20" text-anchor="middle">200 rows</text>
  <text x="315" y="100" font-size="26" text-anchor="middle" font-weight="700">Redpanda</text>
  <text x="315" y="128" font-size="20" text-anchor="middle">topic orders</text>
  <text x="545" y="100" font-size="26" text-anchor="middle" font-weight="700">Spark 4.2</text>
  <text x="545" y="128" font-size="20" text-anchor="middle">Scala 3 batch job</text>
  <text x="775" y="100" font-size="26" text-anchor="middle" font-weight="700">Cassandra 5</text>
  <text x="775" y="128" font-size="17" text-anchor="middle">sales.revenue_by_category</text>
  <text x="775" y="255" font-size="26" text-anchor="middle" font-weight="700">UI backend</text>
  <text x="775" y="283" font-size="20" text-anchor="middle">GET /api/revenue</text>
  <text x="955" y="255" font-size="26" text-anchor="middle" font-weight="700">Browser</text>
  <text x="955" y="283" font-size="20" text-anchor="middle">table + bars</text>
  <text x="199" y="45" font-size="20" text-anchor="middle">rpk produce</text>
  <text x="429" y="45" font-size="20" text-anchor="middle">spark-sql-kafka</text>
  <text x="655" y="45" font-size="20" text-anchor="middle">cassandra connector</text>
  <text x="762" y="190" font-size="20" text-anchor="end">java driver</text>
  <text x="869" y="245" font-size="20" text-anchor="middle">html</text>
</svg>
