<svg xmlns="http://www.w3.org/2000/svg" width="960" height="400" viewBox="0 0 960 400">
  <defs>
    <style>@import url('https://fonts.googleapis.com/css2?family=Caveat:wght@500;700&amp;display=swap'); text { font-family: 'Caveat', 'Comic Sans MS', cursive; fill: #2b2b2b; }</style>
    <filter id="wobble"><feTurbulence type="fractalNoise" baseFrequency="0.02" numOctaves="3" seed="4" result="n"/><feDisplacementMap in="SourceGraphic" in2="n" scale="3"/></filter>
    <marker id="arrow" markerWidth="12" markerHeight="12" refX="10" refY="6" orient="auto"><path d="M1,1 L10,6 L1,11" fill="none" stroke="#2b2b2b" stroke-width="2"/></marker>
  </defs>
  <rect width="960" height="400" fill="#fffdf7"/>
  <g filter="url(#wobble)" stroke="#2b2b2b" stroke-width="2.2">
    <rect x="20" y="120" width="150" height="90" rx="10" fill="#fde2e4"/>
    <rect x="220" y="120" width="170" height="90" rx="10" fill="#fff1c1"/>
    <rect x="440" y="60" width="230" height="200" rx="10" fill="#d7f0dd"/>
    <rect x="470" y="305" width="170" height="75" rx="10" fill="#f3e1d0"/>
    <rect x="730" y="40" width="210" height="80" rx="10" fill="#fff1c1"/>
    <rect x="730" y="165" width="210" height="80" rx="10" fill="#dbe7ff"/>
    <rect x="730" y="295" width="210" height="80" rx="10" fill="#eadcf8"/>
    <path d="M170,165 L218,165" fill="none" marker-end="url(#arrow)"/>
    <path d="M390,165 L438,165" fill="none" marker-end="url(#arrow)"/>
    <path d="M670,100 L728,82" fill="none" marker-end="url(#arrow)"/>
    <path d="M670,205 L728,205" fill="none" marker-end="url(#arrow)"/>
    <path d="M835,245 L835,293" fill="none" marker-end="url(#arrow)"/>
    <path d="M555,260 L555,303" fill="none" marker-end="url(#arrow)"/>
  </g>
  <text x="95" y="160" font-size="26" text-anchor="middle" font-weight="700">orders.csv</text>
  <text x="95" y="188" font-size="20" text-anchor="middle">JSON via rpk produce</text>
  <text x="305" y="160" font-size="26" text-anchor="middle" font-weight="700">Redpanda</text>
  <text x="305" y="188" font-size="20" text-anchor="middle">topic orders</text>
  <text x="555" y="95" font-size="26" text-anchor="middle" font-weight="700">Bytewax dataflow</text>
  <text x="555" y="128" font-size="20" text-anchor="middle">parse JSON</text>
  <text x="555" y="156" font-size="20" text-anchor="middle">key by category</text>
  <text x="555" y="184" font-size="20" text-anchor="middle">stateful_map running totals</text>
  <text x="555" y="212" font-size="20" text-anchor="middle">fold_window 1-day tumbling</text>
  <text x="555" y="240" font-size="20" text-anchor="middle">event time on ts</text>
  <text x="555" y="338" font-size="24" text-anchor="middle" font-weight="700">recovery dir</text>
  <text x="555" y="364" font-size="19" text-anchor="middle">snapshots + offsets</text>
  <text x="835" y="75" font-size="24" text-anchor="middle" font-weight="700">Redpanda</text>
  <text x="835" y="102" font-size="19" text-anchor="middle">topic order-aggregates</text>
  <text x="835" y="200" font-size="24" text-anchor="middle" font-weight="700">SQLite store</text>
  <text x="835" y="227" font-size="19" text-anchor="middle">totals, windows, runs</text>
  <text x="835" y="330" font-size="24" text-anchor="middle" font-weight="700">UI backend</text>
  <text x="835" y="357" font-size="19" text-anchor="middle">GET /api/* + index.html</text>
</svg>
