<svg xmlns="http://www.w3.org/2000/svg" width="980" height="420" viewBox="0 0 980 420">
<defs>
<filter id="wobble"><feTurbulence type="fractalNoise" baseFrequency="0.02" numOctaves="3" result="n"/><feDisplacementMap in="SourceGraphic" in2="n" scale="3"/></filter>
<marker id="arrow" markerWidth="12" markerHeight="10" refX="10" refY="5" orient="auto"><path d="M0,0 L10,5 L0,10" fill="none" stroke="#333" stroke-width="2"/></marker>
<style>@import url('https://fonts.googleapis.com/css2?family=Caveat:wght@500;700&amp;display=swap');text{font-family:Caveat,cursive;fill:#222}.t{font-size:24px;font-weight:700}.s{font-size:18px}</style>
</defs>
<rect width="980" height="420" fill="#fffdf8"/>
<g filter="url(#wobble)" stroke="#333" stroke-width="2">
<rect x="30" y="40" width="190" height="90" rx="12" fill="#ffe8cc"/>
<rect x="30" y="250" width="230" height="110" rx="12" fill="#e3f2ff"/>
<rect x="340" y="120" width="260" height="170" rx="12" fill="#e6f7e9"/>
<rect x="720" y="40" width="230" height="110" rx="12" fill="#f3e8ff"/>
<rect x="720" y="250" width="230" height="110" rx="12" fill="#fff4b8"/>
<path d="M125,130 L125,245" fill="none" marker-end="url(#arrow)"/>
<path d="M260,300 L335,240" fill="none" marker-end="url(#arrow)"/>
<path d="M600,190 L715,110" fill="none" marker-end="url(#arrow)"/>
<path d="M715,290 L605,240" fill="none" marker-end="url(#arrow)"/>
</g>
<text class="t" x="55" y="78">data/orders.csv</text>
<text class="s" x="55" y="105">200 orders, dbt seed</text>
<text class="t" x="50" y="283">dbt-core 1.12</text>
<text class="s" x="50" y="310">dbt-spark 1.11, Python 3.14</text>
<text class="s" x="50" y="335">seed, run x2, test</text>
<text class="t" x="360" y="155">Spark 4.1.3 Thrift Server</text>
<text class="s" x="360" y="185">podman, port 23900</text>
<text class="s" x="360" y="212">Iceberg 1.11 runtime jar</text>
<text class="s" x="360" y="239">MERGE INTO via extensions</text>
<text class="s" x="360" y="266">Hadoop catalog lake</text>
<text class="t" x="740" y="78">Iceberg warehouse</text>
<text class="s" x="740" y="105">volume i39-warehouse</text>
<text class="s" x="740" y="130">parquet + metadata + snapshots</text>
<text class="t" x="740" y="285">UI :23980</text>
<text class="s" x="740" y="310">Python http.server + PyHive</text>
<text class="s" x="740" y="335">revenue, snapshots, loads</text>
<text class="s" x="275" y="325">thrift</text>
<text class="s" x="630" y="135">write</text>
<text class="s" x="640" y="300">query</text>
</svg>
